<svg
            className="w-32 h-32 text-neutral-300"
            viewBox="0 0 120 120"
            fill="none"
            stroke="currentColor"
            strokeWidth="2.5"
            strokeLinecap="round"
            strokeLinejoin="round"
            aria-hidden="true"
          >
            {/* Wooden Crate outline */}
            <path d="M20 45h80v45H20z" fill="var(--neutral-100)" />
            {/* Horizontal planks */}
            <line x1="20" y1="60" x2="100" y2="60" />
            <line x1="20" y1="75" x2="100" y2="75" />
            {/* Diagonal brace lines */}
            <line x1="20" y1="45" x2="100" y2="90" stroke="var(--neutral-200)" strokeWidth="1.5" />
            {/* Organic Wheat sprig growing out of crate */}
            <path
              d="M60 45c0-10-8-15-8-25 0 0 6 5 8 10 2-5 8-10 8-10 0 10-8 15-8 25z"
              stroke="var(--brand-primary)"
              strokeWidth="2"
              fill="rgba(19, 56, 43, 0.1)"
            />
            <path
              d="M56 22c-2-2-6-2-6-2 0 0 3 4 5 5M64 22c2-2 6-2 6-2 0 0-3 4-5 5"
              stroke="var(--brand-accent)"
              strokeWidth="1.5"
            />
          </svg>