<svg width="32" height="32" viewBox="-0.2 -1.5 32 32" fill="none" style="margin-bottom:24px"><path d="M16.9328 0C18.0839 0.000116771 19.1334 0.658832 19.634 1.69531L31.4299 26.1309C32.0708 27.4588 31.1036 28.9999 29.6291 29H2.00215C0.527541 29 -0.439628 27.4588 0.201371 26.1309L11.9973 1.69531C12.4979 0.658823 13.5474 7.75066e-05 14.6984 0H16.9328ZM3.59493 26H28.0363L16.9328 3H14.6984L3.59493 26ZM15.8156 19C16.9202 19.0001 17.8156 19.8955 17.8156 21C17.8156 22.1045 16.9202 22.9999 15.8156 23C14.7111 23 13.8156 22.1046 13.8156 21C13.8156 19.8954 14.7111 19 15.8156 19ZM17.3156 16.5H14.3156V8.5H17.3156V16.5Z" fill="var(--next-error-title)"></path></svg>