<svg
            className="w-32 h-32 text-neutral-300"
            viewBox="0 0 120 120"
            fill="none"
            stroke="currentColor"
            strokeWidth="2.5"
            strokeLinecap="round"
            strokeLinejoin="round"
            aria-hidden="true"
          >
            {/* Dotted broken heart path */}
            <path
              d="M60 90S25 65 25 42.5c0-12.4 10.1-22.5 22.5-22.5 7.1 0 13.4 3.3 17.5 8.5 4.1-5.2 10.4-8.5 17.5-8.5 12.4 0 22.5 10.1 22.5 22.5C105 65 70 90 70 90"
              fill="rgba(224, 94, 43, 0.05)"
              strokeDasharray="4 4"
            />
            {/* Inner small solid heart outline */}
            <path
              d="M60 75S35 55 35 37.5C35 27.8 42.8 20 52.5 20c5.5 0 10.4 2.5 13.6 6.5 3.2-4 8.1-6.5 13.6-6.5 9.7 0 17.5 7.8 17.5 17.5C97 55 72 75 72 75"
              stroke="var(--brand-accent)"
              strokeWidth="2.5"
            />
          </svg>